<?xml version="1.0" standalone="yes"?>
<!--
#
# Licensed to the Apache Software Foundation (ASF) under one
# or more contributor license agreements.  See the NOTICE file
# distributed with this work for additional information
# regarding copyright ownership.  The ASF licenses this file
# to you under the Apache License, Version 2.0 (the
# "License"); you may not use this file except in compliance
# with the License.  You may obtain a copy of the License at
#
#   https://www.apache.org/licenses/LICENSE-2.0
#
# Unless required by applicable law or agreed to in writing,
# software distributed under the License is distributed on an
# "AS IS" BASIS, WITHOUT WARRANTIES OR CONDITIONS OF ANY
# KIND, either express or implied.  See the License for the
# specific language governing permissions and limitations
# under the License.
#
-->
<svg xmlns="http://www.w3.org/2000/svg" version="1.1" width="35" height="30" viewBox="2 2 35 30">
  <path fill="#0068e0" d="m 11.323019,20.31228 1.54227,4.70955 24.13142,6.882311 z"/>
  <path fill="#000094" d="m 19.74759,12.513621 c 0.296701,1.17482 -0.0154,1.921136 -1.916568,1.736268 L 36.900852,31.9224 c 0.216248,0.08673 0.253906,-0.0582 0.104415,-0.279013 z"/>
  <path fill="#1cccfc" d="m 19.141638,3.9863335 c 0,0 -0.680128,0.6419002 0.03537,1.4732323 0.530637,0.6173653 1.32431,0.2385015 1.32431,0.2385015 0,0 0.730909,-0.4102455 0.175738,-1.2752416 C 19.955281,3.297646 19.141638,3.9863335 19.141638,3.9863335 Z M 37.043496,31.999998 9.9901505,19.948822 c 0,0 -8.8393814,-5.467278 -7.923605,-7.626915 0.8918121,-2.090598 8.7703415,2.121979 9.6039545,2.315975 0.833613,0.195709 1.297493,-0.332076 1.312898,-0.700099 0.02454,-0.530637 -1.170253,-2.048375 -0.550607,-2.696551 0.617365,-0.646465 2.636637,0.612801 2.636637,0.612801 l 1.638127,1.134309 z"/>
  <path fill="#1cccfc" d="M 37.150194,31.886453 19.297405,12.110222 c 0,0 -3.215773,-3.6511281 -3.082258,-4.6964268 0.133515,-1.0452988 4.404285,2.2914409 4.404285,2.2914409 0,0 0.474721,0.4570329 0.924906,0.3788639 0.450185,-0.07589 -0.03138,-0.8244852 -0.03138,-0.8244852 0,0 -0.737756,-1.7140161 -0.245348,-2.0215576 0.495261,-0.3052592 1.745396,0.9848175 1.745396,0.9848175 0,0 0.312105,0.3235177 0.639617,0.2362192 0.327511,-0.08901 0.151773,-0.8085089 0.151773,-0.8085089 0,0 -2.257774,-5.2065236 -1.272958,-5.5945166 1.50233,-0.5951128 3.641994,3.7133212 4.359781,5.0547499 0.180302,0.3703051 10.258977,24.7756347 10.258977,24.7756347 z M 9.2900523,7.4160775 c 0,0 -0.9157763,0.6065243 0.1027039,1.772215 0.9363168,1.0743985 1.7699308,0.5169436 1.7699308,0.5169436 0,0 0.864424,-0.5283551 0.03538,-1.5245842 C 10.101413,6.863758 9.2900523,7.4160775 9.2900523,7.4160775 Z"/>
</svg>
