<?xml version="1.0" encoding="UTF-8" standalone="no"?>
<!--
  - Licensed to the Apache Software Foundation (ASF) under one
  - or more contributor license agreements.  See the NOTICE file
  - distributed with this work for additional information
  - regarding copyright ownership.  The ASF licenses this file
  - to you under the Apache License, Version 2.0 (the
  - "License"); you may not use this file except in compliance
  - with the License.  You may obtain a copy of the License at
  -
  -     https://www.apache.org/licenses/LICENSE-2.0
  -
  - Unless required by applicable law or agreed to in writing, software
  - distributed under the License is distributed on an "AS IS" BASIS,
  - WITHOUT WARRANTIES OR CONDITIONS OF ANY KIND, either express or implied.
  - See the License for the specific language governing permissions and
  - limitations under the License.
  -->

<!--
Notes:
1. The image scales to 100% high, or up to the maximum available width
2. The text uses the current CSS color (and defaults to black)
-->
<svg xmlns="http://www.w3.org/2000/svg" version="1.1" viewBox="2 2 95 30" style="width: auto; height: 100%">
  <g style="display:inline;stroke-width:22.8385;fill-opacity:1;fill:currentColor">
        <path d="m 49.809047,21.433157 h -4.770645 l -1.095651,3.541886 H 40.815582 L 45.97427,8.9794298 h 3.127169 L 54.237301,24.975043 H 50.95035 l -1.141303,-3.541886 m -4.040211,-2.513596 h 3.423907 l -1.620649,-5.347105 h -0.205435 z"/>
        <path d="m 61.518681,21.524561 h 0.159783 l 2.556517,-7.974956 h 3.195648 L 63.070853,24.975043 H 59.898031 L 54.99043,13.549605 h 3.446734 z"/>
        <path d="m 68.960441,22.461447 h 2.830431 v -6.398246 h -2.830431 v -2.513596 h 5.135862 l 0.342391,1.508158 h 0.0913 c 0.433695,-0.502719 0.913042,-0.914035 1.460867,-1.256798 a 3.6065164,3.6104384 0 0 1 1.917389,-0.50272 c 0.913042,0 1.62065,0.342764 2.145649,1.005439 0.524999,0.685526 0.798912,1.782368 0.798912,3.359079 h -2.670649 c 0,-0.548421 -0.0913,-0.936886 -0.251086,-1.188246 -0.159783,-0.25136 -0.410869,-0.388465 -0.75326,-0.388465 a 2.2826053,2.2850876 0 0 0 -1.483693,0.457018 4.724993,4.7301313 0 0 0 -0.935869,1.05114 v 4.867237 h 4.953254 v 2.513596 H 68.960441 Z"/>
        <path d="m 82.564712,19.262506 c 0,-0.959737 0.136956,-1.82807 0.433695,-2.559298 a 5.2499922,5.2557015 0 0 1 3.127169,-3.062018 7.1673806,7.1751751 0 0 1 2.48804,-0.411316 c 0.958694,0 1.826084,0.137106 2.556518,0.434167 a 5.2043401,5.2099997 0 0 1 1.917388,1.233947 4.9076014,4.9129383 0 0 1 1.164129,1.896623 7.0989025,7.1066224 0 0 1 0.410869,2.467895 7.0304243,7.0380698 0 0 1 -0.433695,2.559298 5.2499922,5.2557015 0 0 1 -3.149995,3.084868 7.3499891,7.3579821 0 0 1 -2.465214,0.388465 A 7.2130327,7.2208768 0 0 1 86.034272,24.86097 5.4097746,5.4156576 0 0 1 84.13971,23.649874 5.3641225,5.3699559 0 0 1 82.952755,21.7304 7.4869454,7.4950873 0 0 1 82.564712,19.262506 m 3.058691,0 c 0,0.502719 0.06848,0.959737 0.205435,1.393903 a 3.423908,3.4276314 0 0 0 0.593477,1.119693 2.8076045,2.8106577 0 0 0 0.935868,0.754079 2.9673869,2.9706139 0 0 0 1.255433,0.25136 c 0.890216,0 1.597824,-0.274211 2.145649,-0.845483 0.570651,-0.571272 0.844564,-1.462456 0.844564,-2.673552 a 3.9032551,3.9074998 0 0 0 -0.776086,-2.536448 2.6478221,2.6507016 0 0 0 -2.214127,-0.982587 3.3554298,3.3590788 0 0 0 -1.186955,0.205658 2.3054314,2.3079385 0 0 0 -0.958694,0.616973 3.1728214,3.1762718 0 0 0 -0.616303,1.096842 4.9304274,4.9357892 0 0 0 -0.228261,1.599562 z"/>
    </g>
    <g>
        <path fill="#0068e0" d="m 11.323019,20.31228 1.54227,4.70955 24.13142,6.882311 z"/>
        <path fill="#000094" d="m 19.74759,12.513621 c 0.296701,1.17482 -0.0154,1.921136 -1.916568,1.736268 L 36.900852,31.9224 c 0.216248,0.08673 0.253906,-0.0582 0.104415,-0.279013 z"/>
        <path fill="#1cccfc" d="m 19.141638,3.9863335 c 0,0 -0.680128,0.6419002 0.03537,1.4732323 0.530637,0.6173653 1.32431,0.2385015 1.32431,0.2385015 0,0 0.730909,-0.4102455 0.175738,-1.2752416 C 19.955281,3.297646 19.141638,3.9863335 19.141638,3.9863335 Z M 37.043496,31.999998 9.9901505,19.948822 c 0,0 -8.8393814,-5.467278 -7.923605,-7.626915 0.8918121,-2.090598 8.7703415,2.121979 9.6039545,2.315975 0.833613,0.195709 1.297493,-0.332076 1.312898,-0.700099 0.02454,-0.530637 -1.170253,-2.048375 -0.550607,-2.696551 0.617365,-0.646465 2.636637,0.612801 2.636637,0.612801 l 1.638127,1.134309 z"/>
        <path fill="#1cccfc" d="M 37.150194,31.886453 19.297405,12.110222 c 0,0 -3.215773,-3.6511281 -3.082258,-4.6964268 0.133515,-1.0452988 4.404285,2.2914409 4.404285,2.2914409 0,0 0.474721,0.4570329 0.924906,0.3788639 0.450185,-0.07589 -0.03138,-0.8244852 -0.03138,-0.8244852 0,0 -0.737756,-1.7140161 -0.245348,-2.0215576 0.495261,-0.3052592 1.745396,0.9848175 1.745396,0.9848175 0,0 0.312105,0.3235177 0.639617,0.2362192 0.327511,-0.08901 0.151773,-0.8085089 0.151773,-0.8085089 0,0 -2.257774,-5.2065236 -1.272958,-5.5945166 1.50233,-0.5951128 3.641994,3.7133212 4.359781,5.0547499 0.180302,0.3703051 10.258977,24.7756347 10.258977,24.7756347 z M 9.2900523,7.4160775 c 0,0 -0.9157763,0.6065243 0.1027039,1.772215 0.9363168,1.0743985 1.7699308,0.5169436 1.7699308,0.5169436 0,0 0.864424,-0.5283551 0.03538,-1.5245842 C 10.101413,6.863758 9.2900523,7.4160775 9.2900523,7.4160775 Z"/>
    </g>
</svg>
